<?xml version="1.0" encoding="UTF-8" standalone="no"?>
<!DOCTYPE svg PUBLIC "-//W3C//DTD SVG 1.1//EN"
 "http://www.w3.org/Graphics/SVG/1.1/DTD/svg11.dtd">
<!-- Generated by graphviz version 2.40.1 (20161225.0304)
 -->
<!-- Title: dependencies Pages: 1 -->
<svg width="1112pt" height="284pt"
 viewBox="0.00 0.00 1112.00 284.00" xmlns="http://www.w3.org/2000/svg" xmlns:xlink="http://www.w3.org/1999/xlink">
<g id="graph0" class="graph" transform="scale(1 1) rotate(0) translate(4 280)">
<title>dependencies</title>
<polygon fill="#ffffff" stroke="transparent" points="-4,4 -4,-280 1108,-280 1108,4 -4,4"/>
<text text-anchor="start" x="531.0091" y="-42.4" font-family="sans-serif" font-weight="bold" font-size="14.00" fill="#000000">Legend</text>
<polygon fill="#ffffb3" stroke="transparent" points="318,-10 318,-30 338,-30 338,-10 318,-10"/>
<text text-anchor="start" x="341.629" y="-15.4" font-family="sans-serif" font-size="14.00" fill="#000000"> &#160;Declarations</text>
<polygon fill="#8dd3c7" stroke="transparent" points="431,-10 431,-30 451,-30 451,-10 431,-10"/>
<text text-anchor="start" x="454.7251" y="-15.4" font-family="sans-serif" font-size="14.00" fill="#000000"> &#160;Module</text>
<polygon fill="#80b1d3" stroke="transparent" points="517,-10 517,-30 537,-30 537,-10 517,-10"/>
<text text-anchor="start" x="540.7812" y="-15.4" font-family="sans-serif" font-size="14.00" fill="#000000"> &#160;Bootstrap</text>
<polygon fill="#fdb462" stroke="transparent" points="614,-10 614,-30 634,-30 634,-10 614,-10"/>
<text text-anchor="start" x="637.6732" y="-15.4" font-family="sans-serif" font-size="14.00" fill="#000000"> &#160;Providers</text>
<polygon fill="#fb8072" stroke="transparent" points="710,-10 710,-30 730,-30 730,-10 710,-10"/>
<text text-anchor="start" x="733.7258" y="-15.4" font-family="sans-serif" font-size="14.00" fill="#000000"> &#160;Exports</text>
<g id="clust1" class="cluster">
<title>cluster_MatDialogsModule</title>
<polygon fill="none" stroke="#000000" stroke-dasharray="1,5" points="8,-70 8,-268 1096,-268 1096,-70 8,-70"/>
</g>
<g id="clust2" class="cluster">
<title>cluster_MatDialogsModule_declarations</title>
<polygon fill="none" stroke="#000000" points="32,-78 32,-130 1077,-130 1077,-78 32,-78"/>
</g>
<g id="clust12" class="cluster">
<title>cluster_MatDialogsModule_exports</title>
<polygon fill="none" stroke="#000000" points="16,-208 16,-260 1088,-260 1088,-208 16,-208"/>
</g>
<!-- MatAlertDialog -->
<g id="node1" class="node">
<title>MatAlertDialog</title>
<polygon fill="#ffffb3" stroke="#000000" points="1068.916,-122 963.084,-122 963.084,-86 1068.916,-86 1068.916,-122"/>
<text text-anchor="middle" x="1016" y="-99.8" font-family="Times,serif" font-size="14.00" fill="#000000">MatAlertDialog</text>
</g>
<!-- MatDialogsModule -->
<g id="node9" class="node">
<title>MatDialogsModule</title>
<polygon fill="#8dd3c7" stroke="#000000" points="555.6471,-187 552.6471,-191 531.6471,-191 528.6471,-187 430.3529,-187 430.3529,-151 555.6471,-151 555.6471,-187"/>
<text text-anchor="middle" x="493" y="-164.8" font-family="Times,serif" font-size="14.00" fill="#000000">MatDialogsModule</text>
</g>
<!-- MatAlertDialog&#45;&gt;MatDialogsModule -->
<g id="edge1" class="edge">
<title>MatAlertDialog&#45;&gt;MatDialogsModule</title>
<path fill="none" stroke="#000000" d="M967.4174,-122.2222C967.4174,-140.8285 967.4174,-167 967.4174,-167 967.4174,-167 565.999,-167 565.999,-167"/>
<polygon fill="#000000" stroke="#000000" points="565.999,-163.5001 555.999,-167 565.9989,-170.5001 565.999,-163.5001"/>
</g>
<!-- MatAsyncDialog -->
<g id="node2" class="node">
<title>MatAsyncDialog</title>
<polygon fill="#ffffb3" stroke="#000000" points="945.4188,-122 832.5812,-122 832.5812,-86 945.4188,-86 945.4188,-122"/>
<text text-anchor="middle" x="889" y="-99.8" font-family="Times,serif" font-size="14.00" fill="#000000">MatAsyncDialog</text>
</g>
<!-- MatAsyncDialog&#45;&gt;MatDialogsModule -->
<g id="edge2" class="edge">
<title>MatAsyncDialog&#45;&gt;MatDialogsModule</title>
<path fill="none" stroke="#000000" d="M909.4863,-122.0336C909.4863,-139.0597 909.4863,-162 909.4863,-162 909.4863,-162 565.8032,-162 565.8032,-162"/>
<polygon fill="#000000" stroke="#000000" points="565.8032,-158.5001 555.8032,-162 565.8031,-165.5001 565.8032,-158.5001"/>
</g>
<!-- MatConfirmDialog -->
<g id="node3" class="node">
<title>MatConfirmDialog</title>
<polygon fill="#ffffb3" stroke="#000000" points="815.0912,-122 690.9088,-122 690.9088,-86 815.0912,-86 815.0912,-122"/>
<text text-anchor="middle" x="753" y="-99.8" font-family="Times,serif" font-size="14.00" fill="#000000">MatConfirmDialog</text>
</g>
<!-- MatConfirmDialog&#45;&gt;MatDialogsModule -->
<g id="edge3" class="edge">
<title>MatConfirmDialog&#45;&gt;MatDialogsModule</title>
<path fill="none" stroke="#000000" d="M774.0985,-122.2396C774.0985,-137.5706 774.0985,-157 774.0985,-157 774.0985,-157 565.7341,-157 565.7341,-157"/>
<polygon fill="#000000" stroke="#000000" points="565.7342,-153.5001 555.7341,-157 565.7341,-160.5001 565.7342,-153.5001"/>
</g>
<!-- MatInputDialog -->
<g id="node4" class="node">
<title>MatInputDialog</title>
<polygon fill="#ffffb3" stroke="#000000" points="673.2036,-122 566.7964,-122 566.7964,-86 673.2036,-86 673.2036,-122"/>
<text text-anchor="middle" x="620" y="-99.8" font-family="Times,serif" font-size="14.00" fill="#000000">MatInputDialog</text>
</g>
<!-- MatInputDialog&#45;&gt;MatDialogsModule -->
<g id="edge4" class="edge">
<title>MatInputDialog&#45;&gt;MatDialogsModule</title>
<path fill="none" stroke="#000000" d="M566.6095,-104C558.2112,-104 552.2392,-104 552.2392,-104 552.2392,-104 552.2392,-140.8939 552.2392,-140.8939"/>
<polygon fill="#000000" stroke="#000000" points="548.7392,-140.8938 552.2392,-150.8939 555.7392,-140.8939 548.7392,-140.8938"/>
</g>
<!-- MatLoadingDialog -->
<g id="node5" class="node">
<title>MatLoadingDialog</title>
<polygon fill="#ffffb3" stroke="#000000" points="548.8104,-122 425.1896,-122 425.1896,-86 548.8104,-86 548.8104,-122"/>
<text text-anchor="middle" x="487" y="-99.8" font-family="Times,serif" font-size="14.00" fill="#000000">MatLoadingDialog</text>
</g>
<!-- MatLoadingDialog&#45;&gt;MatDialogsModule -->
<g id="edge5" class="edge">
<title>MatLoadingDialog&#45;&gt;MatDialogsModule</title>
<path fill="none" stroke="#000000" d="M489.4159,-122.1061C489.4159,-122.1061 489.4159,-140.991 489.4159,-140.991"/>
<polygon fill="#000000" stroke="#000000" points="485.9159,-140.9909 489.4159,-150.991 492.9159,-140.991 485.9159,-140.9909"/>
</g>
<!-- MatRadioDialog -->
<g id="node6" class="node">
<title>MatRadioDialog</title>
<polygon fill="#ffffb3" stroke="#000000" points="407.094,-122 296.906,-122 296.906,-86 407.094,-86 407.094,-122"/>
<text text-anchor="middle" x="352" y="-99.8" font-family="Times,serif" font-size="14.00" fill="#000000">MatRadioDialog</text>
</g>
<!-- MatRadioDialog&#45;&gt;MatDialogsModule -->
<g id="edge6" class="edge">
<title>MatRadioDialog&#45;&gt;MatDialogsModule</title>
<path fill="none" stroke="#000000" d="M366.849,-122.2396C366.849,-137.5706 366.849,-157 366.849,-157 366.849,-157 420.2941,-157 420.2941,-157"/>
<polygon fill="#000000" stroke="#000000" points="420.2941,-160.5001 430.2941,-157 420.294,-153.5001 420.2941,-160.5001"/>
</g>
<!-- MatSelectDialog -->
<g id="node7" class="node">
<title>MatSelectDialog</title>
<polygon fill="#ffffb3" stroke="#000000" points="279.3599,-122 168.6401,-122 168.6401,-86 279.3599,-86 279.3599,-122"/>
<text text-anchor="middle" x="224" y="-99.8" font-family="Times,serif" font-size="14.00" fill="#000000">MatSelectDialog</text>
</g>
<!-- MatSelectDialog&#45;&gt;MatDialogsModule -->
<g id="edge7" class="edge">
<title>MatSelectDialog&#45;&gt;MatDialogsModule</title>
<path fill="none" stroke="#000000" d="M274.8049,-122.0336C274.8049,-139.0597 274.8049,-162 274.8049,-162 274.8049,-162 420.1817,-162 420.1817,-162"/>
<polygon fill="#000000" stroke="#000000" points="420.1817,-165.5001 430.1817,-162 420.1816,-158.5001 420.1817,-165.5001"/>
</g>
<!-- MatTimerDialog -->
<g id="node8" class="node">
<title>MatTimerDialog</title>
<polygon fill="#ffffb3" stroke="#000000" points="150.3613,-122 39.6387,-122 39.6387,-86 150.3613,-86 150.3613,-122"/>
<text text-anchor="middle" x="95" y="-99.8" font-family="Times,serif" font-size="14.00" fill="#000000">MatTimerDialog</text>
</g>
<!-- MatTimerDialog&#45;&gt;MatDialogsModule -->
<g id="edge8" class="edge">
<title>MatTimerDialog&#45;&gt;MatDialogsModule</title>
<path fill="none" stroke="#000000" d="M144.3056,-122.2222C144.3056,-140.8285 144.3056,-167 144.3056,-167 144.3056,-167 420.2577,-167 420.2577,-167"/>
<polygon fill="#000000" stroke="#000000" points="420.2577,-170.5001 430.2577,-167 420.2577,-163.5001 420.2577,-170.5001"/>
</g>
<!-- MatAlertDialog  -->
<g id="node10" class="node">
<title>MatAlertDialog </title>
<polygon fill="#fb8072" stroke="#000000" points="1080.4152,-252 971.5848,-252 971.5848,-216 1080.4152,-216 1080.4152,-252"/>
<text text-anchor="middle" x="1026" y="-229.8" font-family="Times,serif" font-size="14.00" fill="#000000">MatAlertDialog </text>
</g>
<!-- MatDialogsModule&#45;&gt;MatAlertDialog  -->
<g id="edge9" class="edge">
<title>MatDialogsModule&#45;&gt;MatAlertDialog </title>
<path fill="none" stroke="#000000" stroke-dasharray="5,2" d="M555.7989,-172C695.5721,-172 1020.125,-172 1020.125,-172 1020.125,-172 1020.125,-205.7333 1020.125,-205.7333"/>
<polygon fill="#000000" stroke="#000000" points="1016.6251,-205.7333 1020.125,-215.7333 1023.6251,-205.7333 1016.6251,-205.7333"/>
</g>
<!-- MatAsyncDialog  -->
<g id="node11" class="node">
<title>MatAsyncDialog </title>
<polygon fill="#fb8072" stroke="#000000" points="953.918,-252 838.082,-252 838.082,-216 953.918,-216 953.918,-252"/>
<text text-anchor="middle" x="896" y="-229.8" font-family="Times,serif" font-size="14.00" fill="#000000">MatAsyncDialog </text>
</g>
<!-- MatDialogsModule&#45;&gt;MatAsyncDialog  -->
<g id="edge10" class="edge">
<title>MatDialogsModule&#45;&gt;MatAsyncDialog </title>
<path fill="none" stroke="#000000" stroke-dasharray="5,2" d="M555.8754,-177C664.0229,-177 873.7637,-177 873.7637,-177 873.7637,-177 873.7637,-205.9648 873.7637,-205.9648"/>
<polygon fill="#000000" stroke="#000000" points="870.2638,-205.9648 873.7637,-215.9648 877.2638,-205.9649 870.2638,-205.9648"/>
</g>
<!-- MatConfirmDialog  -->
<g id="node12" class="node">
<title>MatConfirmDialog </title>
<polygon fill="#fb8072" stroke="#000000" points="819.5919,-252 692.4081,-252 692.4081,-216 819.5919,-216 819.5919,-252"/>
<text text-anchor="middle" x="756" y="-229.8" font-family="Times,serif" font-size="14.00" fill="#000000">MatConfirmDialog </text>
</g>
<!-- MatDialogsModule&#45;&gt;MatConfirmDialog  -->
<g id="edge11" class="edge">
<title>MatDialogsModule&#45;&gt;MatConfirmDialog </title>
<path fill="none" stroke="#000000" stroke-dasharray="5,2" d="M555.7833,-182C626.938,-182 733.1515,-182 733.1515,-182 733.1515,-182 733.1515,-205.8129 733.1515,-205.8129"/>
<polygon fill="#000000" stroke="#000000" points="729.6516,-205.8129 733.1515,-215.8129 736.6516,-205.813 729.6516,-205.8129"/>
</g>
<!-- MatInputDialog  -->
<g id="node13" class="node">
<title>MatInputDialog </title>
<polygon fill="#fb8072" stroke="#000000" points="673.7038,-252 564.2962,-252 564.2962,-216 673.7038,-216 673.7038,-252"/>
<text text-anchor="middle" x="619" y="-229.8" font-family="Times,serif" font-size="14.00" fill="#000000">MatInputDialog </text>
</g>
<!-- MatDialogsModule&#45;&gt;MatInputDialog  -->
<g id="edge12" class="edge">
<title>MatDialogsModule&#45;&gt;MatInputDialog </title>
<path fill="none" stroke="#000000" stroke-dasharray="5,2" d="M551.1142,-187.1061C551.1142,-206.3391 551.1142,-234 551.1142,-234 551.1142,-234 554.2032,-234 554.2032,-234"/>
<polygon fill="#000000" stroke="#000000" points="554.2033,-237.5001 564.2032,-234 554.2032,-230.5001 554.2033,-237.5001"/>
</g>
<!-- MatLoadingDialog  -->
<g id="node14" class="node">
<title>MatLoadingDialog </title>
<polygon fill="#fb8072" stroke="#000000" points="546.3101,-252 419.6899,-252 419.6899,-216 546.3101,-216 546.3101,-252"/>
<text text-anchor="middle" x="483" y="-229.8" font-family="Times,serif" font-size="14.00" fill="#000000">MatLoadingDialog </text>
</g>
<!-- MatDialogsModule&#45;&gt;MatLoadingDialog  -->
<g id="edge13" class="edge">
<title>MatDialogsModule&#45;&gt;MatLoadingDialog </title>
<path fill="none" stroke="#000000" stroke-dasharray="5,2" d="M488.2909,-187.1061C488.2909,-187.1061 488.2909,-205.991 488.2909,-205.991"/>
<polygon fill="#000000" stroke="#000000" points="484.7909,-205.9909 488.2909,-215.991 491.7909,-205.991 484.7909,-205.9909"/>
</g>
<!-- MatRadioDialog  -->
<g id="node15" class="node">
<title>MatRadioDialog </title>
<polygon fill="#fb8072" stroke="#000000" points="401.5947,-252 288.4053,-252 288.4053,-216 401.5947,-216 401.5947,-252"/>
<text text-anchor="middle" x="345" y="-229.8" font-family="Times,serif" font-size="14.00" fill="#000000">MatRadioDialog </text>
</g>
<!-- MatDialogsModule&#45;&gt;MatRadioDialog  -->
<g id="edge14" class="edge">
<title>MatDialogsModule&#45;&gt;MatRadioDialog </title>
<path fill="none" stroke="#000000" stroke-dasharray="5,2" d="M430.2536,-182C385.0197,-182 331.901,-182 331.901,-182 331.901,-182 331.901,-205.8129 331.901,-205.8129"/>
<polygon fill="#000000" stroke="#000000" points="328.4011,-205.8129 331.901,-215.8129 335.4011,-205.813 328.4011,-205.8129"/>
</g>
<!-- MatSelectDialog  -->
<g id="node16" class="node">
<title>MatSelectDialog </title>
<polygon fill="#fb8072" stroke="#000000" points="270.3604,-252 155.6396,-252 155.6396,-216 270.3604,-216 270.3604,-252"/>
<text text-anchor="middle" x="213" y="-229.8" font-family="Times,serif" font-size="14.00" fill="#000000">MatSelectDialog </text>
</g>
<!-- MatDialogsModule&#45;&gt;MatSelectDialog  -->
<g id="edge15" class="edge">
<title>MatDialogsModule&#45;&gt;MatSelectDialog </title>
<path fill="none" stroke="#000000" stroke-dasharray="5,2" d="M430.2249,-177C349.4414,-177 219.375,-177 219.375,-177 219.375,-177 219.375,-205.9648 219.375,-205.9648"/>
<polygon fill="#000000" stroke="#000000" points="215.8751,-205.9648 219.375,-215.9648 222.8751,-205.9649 215.8751,-205.9648"/>
</g>
<!-- MatTimerDialog  -->
<g id="node17" class="node">
<title>MatTimerDialog </title>
<polygon fill="#fb8072" stroke="#000000" points="138.3618,-252 23.6382,-252 23.6382,-216 138.3618,-216 138.3618,-252"/>
<text text-anchor="middle" x="81" y="-229.8" font-family="Times,serif" font-size="14.00" fill="#000000">MatTimerDialog </text>
</g>
<!-- MatDialogsModule&#45;&gt;MatTimerDialog  -->
<g id="edge16" class="edge">
<title>MatDialogsModule&#45;&gt;MatTimerDialog </title>
<path fill="none" stroke="#000000" stroke-dasharray="5,2" d="M430.2989,-172C316.7877,-172 88.875,-172 88.875,-172 88.875,-172 88.875,-205.7333 88.875,-205.7333"/>
<polygon fill="#000000" stroke="#000000" points="85.3751,-205.7333 88.875,-215.7333 92.3751,-205.7333 85.3751,-205.7333"/>
</g>
</g>
</svg>
